<?xml version="1.0" encoding="UTF-8" standalone="no"?>
<!-- Created with Inkscape (http://www.inkscape.org/) -->

<svg
   width="677.44897"
   height="1122.5197"
   viewBox="0 0 179.24188 296.99999"
   version="1.1"
   id="svg2598"
   inkscape:version="1.2.2 (b0a8486541, 2022-12-01)"
   sodipodi:docname="large.svg"
   xmlns:inkscape="http://www.inkscape.org/namespaces/inkscape"
   xmlns:sodipodi="http://sodipodi.sourceforge.net/DTD/sodipodi-0.dtd"
   xmlns="http://www.w3.org/2000/svg"
   xmlns:svg="http://www.w3.org/2000/svg">
  <sodipodi:namedview
     id="namedview2600"
     pagecolor="#ffffff"
     bordercolor="#000000"
     borderopacity="0.25"
     inkscape:showpageshadow="2"
     inkscape:pageopacity="0.0"
     inkscape:pagecheckerboard="0"
     inkscape:deskcolor="#d1d1d1"
     inkscape:document-units="mm"
     showgrid="false"
     inkscape:zoom="0.63606902"
     inkscape:cx="-4.7164693"
     inkscape:cy="561.25985"
     inkscape:window-width="1560"
     inkscape:window-height="874"
     inkscape:window-x="40"
     inkscape:window-y="26"
     inkscape:window-maximized="1"
     inkscape:current-layer="layer1" />
  <defs
     id="defs2595" />
  <g
     inkscape:label="Vrstva 1"
     inkscape:groupmode="layer"
     id="layer1">
    <g
       id="g3753"
       transform="matrix(0.89279175,0,0,0.89279175,-19.439899,-11.019637)"
       style="fill:#393939;fill-opacity:1">
      <path
         style="fill:#393939;stroke:none;stroke-width:0.079375;stroke-linecap:round;stroke-linejoin:round;stroke-miterlimit:2;fill-opacity:1"
         d="M 44.247419,104.02907 C 57.436939,86.657362 66.575959,65.616286 80.627803,51.349869 95.805872,35.940029 147.51816,22.525638 147.51816,22.525638 L 131.0357,63.760576 c 0,0 90.67115,151.995554 51.21338,203.223184 -14.13212,18.34759 -32.84005,-10.38427 -53.73272,-9.63797 -22.801,0.81446 -68.749226,29.55291 -65.392501,6.45298 C 74.619539,184.6891 106.58408,93.799974 82.210076,98.681505"
         id="path2719"
         sodipodi:nodetypes="csccsssc" />
      <path
         style="fill:#393939;stroke:none;stroke-width:0.079375;stroke-linecap:round;stroke-linejoin:round;stroke-miterlimit:2;fill-opacity:1"
         d="m 155.59617,117.35893 33.53112,-27.060206 -23.23648,0.588264 21.76582,-28.824999 -7.35332,3.529592 c 0,0 21.17755,-54.120408 19.41276,-53.23801 -1.7648,0.882398 -51.76735,30.883928 -51.76735,30.883928 l 3.23546,-12.059439 -27.0602,31.766327"
         id="path2721"
         sodipodi:nodetypes="cccccsccc" />
      <path
         style="fill:#393939;stroke:none;stroke-width:0.0812309;stroke-linecap:round;stroke-linejoin:round;stroke-miterlimit:2;fill-opacity:1"
         d="m 38.451034,276.48468 c 32.460486,-34.52601 55.786859,-5.16177 35.961547,-3.3274 z"
         id="path2723"
         sodipodi:nodetypes="csc" />
      <path
         style="fill:#393939;stroke:none;stroke-width:0.079375;stroke-linecap:round;stroke-linejoin:round;stroke-miterlimit:2;fill-opacity:1"
         d="m 155.30204,263.24872 c 2.85215,8.10203 4.90527,20.6863 14.70663,26.47193 9.70848,-8.69715 10.82589,-19.0819 13.23597,-25.58953"
         id="path2725"
         sodipodi:nodetypes="ccc" />
      <path
         style="fill:#393939;stroke:none;stroke-width:0.10386;stroke-linecap:round;stroke-linejoin:round;stroke-miterlimit:2;fill-opacity:1"
         d="m 105.14616,98.194983 -56.25939,87.287597 -3.038355,0.79438 c 0,0 -1.742054,1.30856 -1.591807,2.22981 0.106667,0.65407 1.605003,1.47303 1.605003,1.47303 l -0.129003,-1.39116 c -0.03035,1.00868 0.293232,2.50331 0.854204,3.41959 0,0 -1.898778,1.24802 -0.399513,2.31797 1.356667,0.96817 1.840488,-0.67807 1.840488,-0.67807 0,0 -1.54908,0.42312 -0.37913,1.56065 1.27613,1.24076 2.059517,-0.53844 2.059517,-0.53844 0,0 -1.613951,0.25104 -0.563568,1.54186 1.280225,1.57328 2.452422,-0.98948 2.452422,-0.98948 0,0 -2.388731,0.28337 -1.218767,1.64232 1.725582,2.0043 4.508825,-1.79981 4.508825,-1.79981 l 60.398354,-49.62327"
         id="path2729"
         sodipodi:nodetypes="cccscccscscscscc"
         inkscape:transform-center-x="26.428407"
         inkscape:transform-center-y="21.628458" />
      <path
         style="fill:#393939;stroke:none;stroke-width:0.079375;stroke-linecap:round;stroke-linejoin:round;stroke-miterlimit:2;fill-opacity:1"
         d="m 73.247494,59.935439 c 0,0 -15.047731,24.102505 -29.000075,44.093631 -3.593517,5.14884 29.000075,-4.318102 29.000075,-4.318102"
         id="path2731"
         sodipodi:nodetypes="csc" />
      <path
         style="fill:#393939;fill-opacity:1;stroke:none;stroke-width:0.128334;stroke-linecap:round;stroke-linejoin:round;stroke-miterlimit:2"
         d="m 141.94722,92.042313 41.84468,55.608727 20.93678,67.40084 1.05975,6.50482 -1.49386,-1.39223 -0.97913,4.48962 -1.80966,-4.6303 -0.96261,-1.0473 -4.96833,5.00709 0.24564,-7.53823 -15.51751,-9.33924"
         id="path3303"
         sodipodi:nodetypes="ccccccccccc" />
    </g>
  </g>
</svg>
