<svg id="svg5" width="32" height="32" version="1.1" viewBox="0 0 32 32" xmlns="http://www.w3.org/2000/svg">
 <path id="path245" d="m12.914 1.0664-1.2734 4.3809a11.339 11.339 0 0 0-2.5781 1.502l-4.4531-1.1133-3.0254 5.1914 3.1523 3.4668a11.339 11.339 0 0 0-0.099609 1.4062 11.339 11.339 0 0 0 0.10352 1.4492l-3.2324 3.291 2.9434 5.2402 4.6758-0.97852a11.339 11.339 0 0 0 2.4473 1.4277l1.3398 4.6035h6.0078l1.4492-4.6016a11.339 11.339 0 0 0 2.3223-1.332l4.6992 1.0605 3.0254-5.1914-3.2168-3.3809a11.339 11.339 0 0 0 0.11328-1.5879 11.339 11.339 0 0 0-0.064453-1.1895l3.2422-3.4551-2.9434-5.2402-4.4805 1.043a11.339 11.339 0 0 0-2.7754-1.6406l-1.3711-4.3516h-6.0078zm3.0859 9.25a5.6306 5.6826 0 0 1 5.6309 5.6836 5.6306 5.6826 0 0 1-5.6309 5.6836 5.6306 5.6826 0 0 1-5.6309-5.6836 5.6306 5.6826 0 0 1 5.6309-5.6836z" fill="#fff"/>
 <ellipse id="ellipse1014" cx="16" cy="16" rx="5.5787" ry="5.6471" display="none"/>
 <ellipse id="ellipse1014-7" cx="16.099" cy="12.74" rx="5.5787" ry="5.6471" display="none"/>
</svg>
