<svg id="svg5" width="32" height="32" version="1.1" viewBox="0 0 32 32" xmlns="http://www.w3.org/2000/svg">
 <g id="layer1">
  <path id="path2226" d="m16.007 7.2256a8.7744 8.7744 0 0 0-8.7091 7.8554h5.6811a3.1826 3.1826 0 0 1 3.028-2.2632 3.1826 3.1826 0 0 1 3.028 2.2632h5.6972a8.7744 8.7744 0 0 0-8.7252-7.8554zm-8.7091 9.6934a8.7744 8.7744 0 0 0 8.7091 7.8554 8.7744 8.7744 0 0 0 8.7091-7.8554h-5.6811a3.1826 3.1826 0 0 1-3.028 2.2632 3.1826 3.1826 0 0 1-3.028-2.2632z" fill="#fff" style="paint-order:fill markers stroke"/>
 </g>
</svg>
