<?xml version="1.0" encoding="UTF-8" standalone="no"?>
<svg
   id="svg5"
   width="32"
   height="32"
   version="1.1"
   viewBox="0 0 32 32"
   sodipodi:docname="pokeBG.svg"
   inkscape:version="1.2.2 (b0a8486541, 2022-12-01)"
   xmlns:inkscape="http://www.inkscape.org/namespaces/inkscape"
   xmlns:sodipodi="http://sodipodi.sourceforge.net/DTD/sodipodi-0.dtd"
   xmlns="http://www.w3.org/2000/svg"
   xmlns:svg="http://www.w3.org/2000/svg">
  <sodipodi:namedview
     id="namedview9"
     pagecolor="#ffffff"
     bordercolor="#000000"
     borderopacity="0.25"
     inkscape:showpageshadow="2"
     inkscape:pageopacity="0.0"
     inkscape:pagecheckerboard="0"
     inkscape:deskcolor="#d1d1d1"
     showgrid="false"
     inkscape:zoom="11.15625"
     inkscape:cx="12.54902"
     inkscape:cy="25.098039"
     inkscape:window-width="1560"
     inkscape:window-height="874"
     inkscape:window-x="40"
     inkscape:window-y="26"
     inkscape:window-maximized="1"
     inkscape:current-layer="svg5" />
  <defs
     id="defs2">
    <linearGradient
       id="linearGradient2298"
       x1="4.9059"
       x2="26.997"
       y1="27.499"
       y2="4.3797"
       gradientUnits="userSpaceOnUse">
      <stop
         id="stop2292"
         stop-color="#5a2aa9"
         offset="0" />
      <stop
         id="stop2294"
         stop-color="#781010"
         offset="1" />
    </linearGradient>
  </defs>
  <g
     id="layer1"
     style="fill:#c4c4c4;fill-opacity:0.54494381"
     transform="matrix(0.83193435,0,0,0.83193435,2.6914874,2.6890756)">
    <path
       id="path2226"
       d="M 16,0 A 16,16 0 0 0 0.119,14.324 h 10.359 a 5.8034,5.8034 0 0 1 5.5215,-4.127 5.8034,5.8034 0 0 1 5.5215,4.127 H 31.91 A 16,16 0 0 0 16,0 Z m 0.01563,12.938 a 3.0634,3.0634 0 0 0 -3.0645,3.0625 3.0634,3.0634 0 0 0 3.0645,3.0625 3.0634,3.0634 0 0 0 3.0625,-3.0625 3.0634,3.0634 0 0 0 -3.0625,-3.0625 z m -15.896,4.7383 a 16,16 0 0 0 15.881,14.324 16,16 0 0 0 15.881,-14.324 h -10.359 a 5.8034,5.8034 0 0 1 -5.5215,4.127 5.8034,5.8034 0 0 1 -5.5215,-4.127 h -10.359 z"
       fill="url(#linearGradient2298)"
       style="fill:#c4c4c4;fill-opacity:0.54494381;paint-order:fill markers stroke" />
  </g>
</svg>
