<svg id="svg5" width="32" height="32" version="1.1" viewBox="0 0 32 32" xmlns="http://www.w3.org/2000/svg" xmlns:xlink="http://www.w3.org/1999/xlink">
 <defs id="defs2">
  <linearGradient id="linearGradient2298" x1="4.9059" x2="26.997" y1="27.499" y2="4.3797" gradientUnits="userSpaceOnUse">
   <stop id="stop2292" stop-color="#5a2aa9" offset="0"/>
   <stop id="stop2294" stop-color="#781010" offset="1"/>
  </linearGradient>
 </defs>
 <g id="layer1">
  <path id="path2226" d="m16 0a16 16 0 0 0-15.881 14.324h10.359a5.8034 5.8034 0 0 1 5.5215-4.127 5.8034 5.8034 0 0 1 5.5215 4.127h10.389a16 16 0 0 0-15.91-14.324zm0.015625 12.938a3.0634 3.0634 0 0 0-3.0645 3.0625 3.0634 3.0634 0 0 0 3.0645 3.0625 3.0634 3.0634 0 0 0 3.0625-3.0625 3.0634 3.0634 0 0 0-3.0625-3.0625zm-15.896 4.7383a16 16 0 0 0 15.881 14.324 16 16 0 0 0 15.881-14.324h-10.359a5.8034 5.8034 0 0 1-5.5215 4.127 5.8034 5.8034 0 0 1-5.5215-4.127h-10.359z" fill="url(#linearGradient2298)" style="paint-order:fill markers stroke"/>
 </g>
</svg>
