<svg width="16mm" height="16mm" version="1.1" viewBox="0 0 16 16" xmlns="http://www.w3.org/2000/svg">
 <defs>
  <clipPath id="b">
   <path class="powerclip" d="m-2.9466-2.9466h21.893v21.893h-21.893zm19.484 7.3835a4.8627 4.8627 0 0 0-4.8627-4.8627 4.8627 4.8627 0 0 0-4.8627 4.8627 4.8627 4.8627 0 0 0 4.8627 4.8627 4.8627 4.8627 0 0 0 4.8627-4.8627z" fill="#f00"/>
  </clipPath>
  <clipPath id="a">
   <path class="powerclip" d="m-2.9466-2.9466h21.893v21.893h-21.893zm12.157 14.51a4.8627 4.8627 0 0 0-4.8627-4.8627 4.8627 4.8627 0 0 0-4.8627 4.8627 4.8627 4.8627 0 0 0 4.8627 4.8627 4.8627 4.8627 0 0 0 4.8627-4.8627z" fill="#f00"/>
  </clipPath>
 </defs>
 <g clip-path="url(#a)">
  <path d="m2.8459 2.8459h10.308v10.308h-10.308z" clip-path="url(#b)" fill="none" stroke="#fff" stroke-dashoffset="25.618" stroke-linecap="round" stroke-linejoin="round" stroke-miterlimit="2" stroke-width="1.585"/>
 </g>
 <circle cx="11.675" cy="4.437" r="2.7705" fill="none" stroke="#fff" stroke-dashoffset="25.618" stroke-linecap="round" stroke-linejoin="round" stroke-miterlimit="2" stroke-width="1.585"/>
 <circle transform="scale(-1)" cx="-4.3249" cy="-11.563" r="2.7705" fill="none" stroke="#fff" stroke-dashoffset="25.618" stroke-linecap="round" stroke-linejoin="round" stroke-miterlimit="2" stroke-width="1.585"/>
</svg>
