<svg width="16mm" height="16mm" version="1.1" viewBox="0 0 16 16" xmlns="http://www.w3.org/2000/svg">
 <path transform="matrix(.75207 .051461 -.053719 .72046 8.0026 8.6659)" d="m6.5445 7.7577c-0.77434 0.65323-5.0932-1.7574-6.1036-1.684-1.0104 0.073332-4.936 3.0823-5.7965 2.5477-0.86055-0.53458 0.097446-5.387-0.28453-6.3253-0.38198-0.9383-4.4567-3.7419-4.2142-4.7255 0.24249-0.98362 5.1535-1.572 5.9278-2.2252 0.77434-0.65323 2.1816-5.3949 3.192-5.4682 1.0104-0.07333 3.0876 4.4155 3.9481 4.95s5.805 0.40768 6.187 1.346c0.38198 0.9383-3.2452 4.3009-3.4877 5.2845-0.24249 0.98362 1.4061 5.6469 0.63177 6.3001z" fill="none" stroke="#fff" stroke-linecap="round" stroke-linejoin="round" stroke-miterlimit="2" stroke-width="1.9865"/>
</svg>
